<svg id="Layer_1" data-name="Layer 1" xmlns="http://www.w3.org/2000/svg" viewBox="0 0 494.71 178.62"><defs><style>.cls-1{fill:#43358b;}.cls-2{fill:#964091;}.cls-3{fill:#0697d5;}.cls-4{fill:#0095d4;}.cls-5{fill:#86bc25;}.cls-6{fill:#1e6e3a;}.cls-7{fill:#2f1f2a;}.cls-8{fill:#433583;}</style></defs><title>PHS logo, positive</title><path class="cls-1" d="M193.92,254.54h16.66a31.54,31.54,0,0,1,7,.74,15.5,15.5,0,0,1,5.67,2.45,12,12,0,0,1,3.82,4.55,17.69,17.69,0,0,1,0,13.89,13.39,13.39,0,0,1-3.88,4.83,16.45,16.45,0,0,1-5.67,2.8,25,25,0,0,1-6.86.91h-6.37v15.47H193.92Zm16,22q8.4,0,8.4-7.28,0-3.57-2.14-5a11,11,0,0,0-6.26-1.47h-5.74v13.79Z" transform="translate(-193.92 -182.4)"/><path class="cls-1" d="M232.07,265.46h10.29v20.23q0,3.78,1,5.18a3.82,3.82,0,0,0,3.29,1.4,5.69,5.69,0,0,0,3.29-.91,13.18,13.18,0,0,0,2.87-2.94v-23h10.29v34.72h-8.4l-.77-4.83h-.21a18.85,18.85,0,0,1-4.8,4.17,11.86,11.86,0,0,1-6.12,1.5c-3.78,0-6.52-1.23-8.23-3.71s-2.55-5.9-2.55-10.29Z" transform="translate(-193.92 -182.4)"/><path class="cls-1" d="M269.45,251.11h10.29v12l-.28,5.32a16,16,0,0,1,4.37-2.83,11.94,11.94,0,0,1,4.8-1,12.21,12.21,0,0,1,10,4.8,16.08,16.08,0,0,1,2.73,5.53,25.9,25.9,0,0,1,.95,7.24,24,24,0,0,1-1.23,8,18.06,18.06,0,0,1-3.29,5.92,14.21,14.21,0,0,1-4.69,3.67,12.4,12.4,0,0,1-5.42,1.26A10.73,10.73,0,0,1,283,299.9a14,14,0,0,1-4.37-3.36h-.28l-.84,3.64h-8.05Zm10.29,39.27a8,8,0,0,0,5.53,2.24,5.62,5.62,0,0,0,4.55-2.41q1.89-2.41,1.89-7.81,0-9.37-6-9.38-3.09,0-5.95,3.15Z" transform="translate(-193.92 -182.4)"/><path class="cls-1" d="M306.9,251.11h10.29v38.71a3.29,3.29,0,0,0,.59,2.24,1.72,1.72,0,0,0,1.23.63h.59a2,2,0,0,0,.67-.14l1.26,7.63a10.83,10.83,0,0,1-2.14.6,16.88,16.88,0,0,1-3,.24,10.63,10.63,0,0,1-4.48-.84,7.27,7.27,0,0,1-2.91-2.34,10,10,0,0,1-1.57-3.64,21.35,21.35,0,0,1-.49-4.8Z" transform="translate(-193.92 -182.4)"/><path class="cls-1" d="M329.79,260.35a6.17,6.17,0,0,1-4.27-1.5,5,5,0,0,1-1.68-3.89,4.88,4.88,0,0,1,1.68-3.85,7,7,0,0,1,8.57,0,4.92,4.92,0,0,1,1.65,3.85,5,5,0,0,1-1.65,3.89A6.12,6.12,0,0,1,329.79,260.35Zm-5.11,5.11H335v34.72H324.68Z" transform="translate(-193.92 -182.4)"/><path class="cls-1" d="M339.31,282.82a19.27,19.27,0,0,1,1.47-7.73,16.66,16.66,0,0,1,4-5.71,17.07,17.07,0,0,1,5.78-3.53,19.42,19.42,0,0,1,6.86-1.23,14.82,14.82,0,0,1,5.81,1.09,12.86,12.86,0,0,1,4.34,2.9L362.83,275a7.67,7.67,0,0,0-4.83-2,7.26,7.26,0,0,0-5.95,2.66,11.07,11.07,0,0,0-2.17,7.21,10.93,10.93,0,0,0,2.2,7.21,6.92,6.92,0,0,0,5.57,2.66,7.49,7.49,0,0,0,3.43-.77,16.36,16.36,0,0,0,2.8-1.75l4.13,6.51a16.19,16.19,0,0,1-5.6,3.29,18.37,18.37,0,0,1-12.71-.17,15.72,15.72,0,0,1-5.42-3.54,16.32,16.32,0,0,1-3.64-5.7A21,21,0,0,1,339.31,282.82Z" transform="translate(-193.92 -182.4)"/><path class="cls-1" d="M386.7,254.54H397v17.57h15.75V254.54H423.1v45.64H412.74v-19H397v19H386.7Z" transform="translate(-193.92 -182.4)"/><path class="cls-1" d="M428.34,282.82a19.59,19.59,0,0,1,1.41-7.59,17.74,17.74,0,0,1,3.67-5.74,15.9,15.9,0,0,1,5.21-3.61,16.29,16.29,0,0,1,12.57,0,12.88,12.88,0,0,1,4.62,3.5,14.93,14.93,0,0,1,2.77,5.29,23.21,23.21,0,0,1,.91,6.61,19.94,19.94,0,0,1-.15,2.56c-.09.77-.18,1.36-.27,1.78H438.29a8.66,8.66,0,0,0,3.11,5.78,9.67,9.67,0,0,0,5.92,1.78,14.24,14.24,0,0,0,7.48-2.31l3.44,6.23a22.73,22.73,0,0,1-5.92,2.87,20.8,20.8,0,0,1-6.4,1A19.42,19.42,0,0,1,439,299.8a16.11,16.11,0,0,1-5.61-3.57,16.55,16.55,0,0,1-3.71-5.71A20.92,20.92,0,0,1,428.34,282.82Zm22.41-3.57a8.39,8.39,0,0,0-1.33-4.9c-.89-1.26-2.38-1.89-4.49-1.89a6.28,6.28,0,0,0-4.3,1.65,8.43,8.43,0,0,0-2.42,5.14Z" transform="translate(-193.92 -182.4)"/><path class="cls-1" d="M462.09,290.52a9.73,9.73,0,0,1,4.62-8.54q4.62-3.08,14.9-4.13a5.71,5.71,0,0,0-1.4-3.67,5.28,5.28,0,0,0-4.06-1.37,12.72,12.72,0,0,0-4.48.84,31.09,31.09,0,0,0-4.75,2.31l-3.65-6.79a36.64,36.64,0,0,1,7-3.29,23.88,23.88,0,0,1,7.8-1.26q6.72,0,10.26,3.82t3.53,11.86v19.88h-8.4l-.77-3.57h-.21a21.67,21.67,0,0,1-4.72,3.19,12.18,12.18,0,0,1-5.42,1.22,11,11,0,0,1-4.28-.8,9.46,9.46,0,0,1-3.22-2.24,10.53,10.53,0,0,1-2.06-3.33A11.27,11.27,0,0,1,462.09,290.52Zm9.79-.77a2.92,2.92,0,0,0,1.09,2.49,4.81,4.81,0,0,0,2.91.8,5.77,5.77,0,0,0,3.08-.77,14.16,14.16,0,0,0,2.65-2.17V284c-3.68.52-6.23,1.26-7.63,2.24A4.26,4.26,0,0,0,471.88,289.75Z" transform="translate(-193.92 -182.4)"/><path class="cls-1" d="M498,251.11h10.29v38.71a3.23,3.23,0,0,0,.6,2.24,1.7,1.7,0,0,0,1.22.63h.6a2,2,0,0,0,.66-.14l1.26,7.63a10.91,10.91,0,0,1-2.13.6,16.92,16.92,0,0,1-3.05.24,10.69,10.69,0,0,1-4.48-.84,7.24,7.24,0,0,1-2.9-2.34,10.15,10.15,0,0,1-1.58-3.64,21.94,21.94,0,0,1-.49-4.8Z" transform="translate(-193.92 -182.4)"/><path class="cls-1" d="M517,273.51H512.2v-7.63l5.32-.42,1.19-9.24h8.54v9.24h8.33v8.05h-8.33v13.93a6.05,6.05,0,0,0,1.23,4.24,4.28,4.28,0,0,0,3.25,1.29,7.35,7.35,0,0,0,1.72-.21,10.79,10.79,0,0,0,1.57-.49l1.61,7.49c-.93.28-2,.56-3.29.84a20.5,20.5,0,0,1-4.41.42,13.75,13.75,0,0,1-5.49-1,9.48,9.48,0,0,1-3.71-2.73,11,11,0,0,1-2.1-4.23,21,21,0,0,1-.67-5.5Z" transform="translate(-193.92 -182.4)"/><path class="cls-1" d="M540.13,251.11h10.29v12l-.49,6.23a28.32,28.32,0,0,1,4.55-3.25,12,12,0,0,1,6.16-1.51c3.78,0,6.53,1.24,8.23,3.71s2.55,5.91,2.55,10.29v21.56H561.13V280c0-2.52-.33-4.24-1-5.18a3.76,3.76,0,0,0-3.26-1.4,6.19,6.19,0,0,0-3.36.88,19.76,19.76,0,0,0-3.08,2.48v23.45H540.13Z" transform="translate(-193.92 -182.4)"/><path class="cls-2" d="M344.14,350.16a19.13,19.13,0,0,0,5.77,4.17,16,16,0,0,0,6.9,1.57,10.91,10.91,0,0,0,7.07-2.06,7.27,7.27,0,0,0,1.92-8.4,6.28,6.28,0,0,0-1.61-2.1,11.42,11.42,0,0,0-2.41-1.58l-3-1.47-6.58-2.87a28.45,28.45,0,0,1-3.29-1.68,13.33,13.33,0,0,1-3-2.38,11.29,11.29,0,0,1-2.17-3.32,11.74,11.74,0,0,1,.24-9.28,12,12,0,0,1,3-3.88,14,14,0,0,1,4.55-2.56,17.74,17.74,0,0,1,5.78-.91,18.41,18.41,0,0,1,7.63,1.58,19.26,19.26,0,0,1,5.95,4.09l-3.15,3.78a16.35,16.35,0,0,0-4.66-3.18,13.86,13.86,0,0,0-5.77-1.16,10,10,0,0,0-6.2,1.79,5.85,5.85,0,0,0-2.34,4.93,5.65,5.65,0,0,0,.66,2.84,7.16,7.16,0,0,0,1.79,2,14.11,14.11,0,0,0,2.45,1.54c.88.44,1.79.85,2.73,1.22l6.51,2.8a27.69,27.69,0,0,1,3.71,1.93,13,13,0,0,1,3,2.52,11,11,0,0,1,2,3.36,12.37,12.37,0,0,1,.74,4.44,12.05,12.05,0,0,1-1.09,5.11,12.26,12.26,0,0,1-3.11,4.17,15,15,0,0,1-4.9,2.8,19.68,19.68,0,0,1-6.51,1,22,22,0,0,1-16.1-6.79Z" transform="translate(-193.92 -182.4)"/><path class="cls-2" d="M376.06,343.23a20.23,20.23,0,0,1,1.33-7.59A17,17,0,0,1,381,330a15,15,0,0,1,5.21-3.5,16.8,16.8,0,0,1,6.27-1.19,12.57,12.57,0,0,1,5.77,1.23,18.38,18.38,0,0,1,4.17,2.83l-2.87,3.71a16.37,16.37,0,0,0-3.19-2.17,7.93,7.93,0,0,0-3.67-.84,9.6,9.6,0,0,0-7.63,3.64,13.57,13.57,0,0,0-2.21,4.17,18.52,18.52,0,0,0,0,10.67,12.85,12.85,0,0,0,2.13,4.1,9.46,9.46,0,0,0,3.33,2.66,10.22,10.22,0,0,0,8.71-.07,16,16,0,0,0,3.54-2.42l2.59,3.78a18.51,18.51,0,0,1-5.15,3.22A15,15,0,0,1,392,361a16.5,16.5,0,0,1-6.3-1.19,14.26,14.26,0,0,1-5.08-3.46,16.5,16.5,0,0,1-3.36-5.6A21.86,21.86,0,0,1,376.06,343.23Z" transform="translate(-193.92 -182.4)"/><path class="cls-2" d="M404.13,343.23a20.86,20.86,0,0,1,1.29-7.59,17.33,17.33,0,0,1,3.47-5.64,14.53,14.53,0,0,1,5-3.5,15.65,15.65,0,0,1,12,0,14.66,14.66,0,0,1,5,3.5,17.31,17.31,0,0,1,3.46,5.64,22.63,22.63,0,0,1,0,15.12,17,17,0,0,1-3.46,5.6,14.83,14.83,0,0,1-5,3.46,15.65,15.65,0,0,1-12,0,14.69,14.69,0,0,1-5-3.46,17,17,0,0,1-3.47-5.6A20.72,20.72,0,0,1,404.13,343.23Zm5.95,0a18.68,18.68,0,0,0,.7,5.32,12.63,12.63,0,0,0,2,4.1,9.22,9.22,0,0,0,3.12,2.66,8.94,8.94,0,0,0,8,0,9.19,9.19,0,0,0,3.11-2.66,12.64,12.64,0,0,0,2-4.1,19,19,0,0,0,.7-5.32,19.41,19.41,0,0,0-.7-5.35,13,13,0,0,0-2-4.17,9.06,9.06,0,0,0-3.11-2.69,8.85,8.85,0,0,0-8,0,9.1,9.1,0,0,0-3.12,2.69,13,13,0,0,0-2,4.17A19,19,0,0,0,410.08,343.23Z" transform="translate(-193.92 -182.4)"/><path class="cls-2" d="M442.14,330.84h-5V326.5l5.32-.35.7-9.52H448v9.52h9.17v4.69H448v18.9a8.7,8.7,0,0,0,1.15,4.87c.77,1.14,2.14,1.71,4.1,1.71a7.53,7.53,0,0,0,2-.28,13.07,13.07,0,0,0,1.89-.63l1.12,4.34a30.09,30.09,0,0,1-3.05.88,14.55,14.55,0,0,1-3.25.38,11.14,11.14,0,0,1-4.59-.84,7.94,7.94,0,0,1-3-2.31,8.9,8.9,0,0,1-1.64-3.57,20.15,20.15,0,0,1-.49-4.62Z" transform="translate(-193.92 -182.4)"/><path class="cls-2" d="M461.6,310.33h5.74v43.4a3,3,0,0,0,.49,2,1.43,1.43,0,0,0,1.12.56h.52a2.69,2.69,0,0,0,.74-.14l.77,4.34a4.83,4.83,0,0,1-1.33.42,10.73,10.73,0,0,1-2,.14q-3.3,0-4.69-2a9.77,9.77,0,0,1-1.4-5.74Z" transform="translate(-193.92 -182.4)"/><path class="cls-2" d="M474.2,351.35a9.44,9.44,0,0,1,5-8.57q5-3,15.93-4.17a15.73,15.73,0,0,0-.32-3.15,7.53,7.53,0,0,0-1.12-2.73,6.08,6.08,0,0,0-2.13-1.92,7.06,7.06,0,0,0-3.43-.74,13.82,13.82,0,0,0-5.57,1.12,27.94,27.94,0,0,0-4.58,2.52l-2.31-4a37.58,37.58,0,0,1,5.81-3,19.29,19.29,0,0,1,7.56-1.44q6.22,0,9,3.82t2.8,10.18v20.86h-4.76l-.49-4.06h-.14a28.38,28.38,0,0,1-5.29,3.47,13.14,13.14,0,0,1-6,1.43,10.4,10.4,0,0,1-7.18-2.52A9,9,0,0,1,474.2,351.35Zm5.67-.42a4.87,4.87,0,0,0,1.71,4.2,7,7,0,0,0,4.24,1.26,9.88,9.88,0,0,0,4.65-1.15,22.63,22.63,0,0,0,4.66-3.4v-9.45a61.52,61.52,0,0,0-7.21,1.33,19.17,19.17,0,0,0-4.73,1.82,6.72,6.72,0,0,0-2.55,2.42A5.88,5.88,0,0,0,479.87,350.93Z" transform="translate(-193.92 -182.4)"/><path class="cls-2" d="M508.43,326.15h4.76l.49,4.9h.21A27.3,27.3,0,0,1,519,327a11.78,11.78,0,0,1,6.27-1.65q5.38,0,7.87,3.36t2.49,9.94v21.56h-5.74V339.38c0-3.22-.52-5.54-1.54-7a5.64,5.64,0,0,0-4.9-2.14,8.39,8.39,0,0,0-4.69,1.33,30.36,30.36,0,0,0-4.62,3.92v24.64h-5.74Z" transform="translate(-193.92 -182.4)"/><path class="cls-2" d="M541.47,343.23a21.37,21.37,0,0,1,1.22-7.45,17.64,17.64,0,0,1,3.26-5.64,14.32,14.32,0,0,1,4.69-3.57,12.91,12.91,0,0,1,5.6-1.26,11.63,11.63,0,0,1,5.11,1.05,23.4,23.4,0,0,1,4.41,2.87l-.28-5.81V310.33h5.81v49.84h-4.76l-.49-4h-.21a21.73,21.73,0,0,1-4.66,3.4,11.63,11.63,0,0,1-5.63,1.43,12.61,12.61,0,0,1-10.26-4.62Q541.47,351.77,541.47,343.23Zm5.95-.07q0,6.16,2.45,9.59a8,8,0,0,0,6.93,3.43,9.17,9.17,0,0,0,4.48-1.15,16.08,16.08,0,0,0,4.2-3.54V333.71a14.71,14.71,0,0,0-4.17-2.76,10.77,10.77,0,0,0-4.09-.81,8,8,0,0,0-3.82.95,9.46,9.46,0,0,0-3.11,2.66,13.16,13.16,0,0,0-2.1,4.09A17,17,0,0,0,547.42,343.16Z" transform="translate(-193.92 -182.4)"/><path class="cls-3" d="M613.21,241.66H575.77a4.73,4.73,0,1,0,0,9.45h37.46l4.72-4.72Z" transform="translate(-193.92 -182.4)"/><path class="cls-4" d="M636,251.11H673.5a4.73,4.73,0,1,0,0-9.45H636.05l-4.73,4.73Z" transform="translate(-193.92 -182.4)"/><path class="cls-4" d="M629.36,235V197.74a4.73,4.73,0,0,0-9.45,0V235l4.72,4.73Z" transform="translate(-193.92 -182.4)"/><path class="cls-2" d="M619.91,251.11h-6.68l-18,18a4.72,4.72,0,0,0,6.68,6.68l18-18Z" transform="translate(-193.92 -182.4)"/><path class="cls-2" d="M629.36,257.81l18,18A4.72,4.72,0,1,0,654,269.1l-18-18h-6.68Z" transform="translate(-193.92 -182.4)"/><path class="cls-5" d="M619.91,235l-19-19a4.72,4.72,0,0,0-6.68,6.68l19,19h6.7Z" transform="translate(-193.92 -182.4)"/><path class="cls-5" d="M687.25,183.78a4.73,4.73,0,0,0-6.69,0L629.36,235v6.68h6.69l51.2-51.2a4.73,4.73,0,0,0,0-6.68" transform="translate(-193.92 -182.4)"/><path class="cls-6" d="M629.36,235l-4.73,4.73L619.91,235v6.68h-6.7l4.74,4.73,3.26-3.26a4.72,4.72,0,0,1,3.38-1.38h.08a4.72,4.72,0,0,1,3.39,1.38l3.26,3.26,4.73-4.73h-6.69Z" transform="translate(-193.92 -182.4)"/><path class="cls-7" d="M623.73,251a4.72,4.72,0,0,0,4.25-1.29l3.34-3.34-3.26-3.26a4.72,4.72,0,0,0-3.39-1.38h-.08a4.72,4.72,0,0,0-3.38,1.38L618,246.39l3.33,3.33a4.7,4.7,0,0,0,2.45,1.3" transform="translate(-193.92 -182.4)"/><path class="cls-8" d="M628,249.73a4.75,4.75,0,0,1-6.7,0L618,246.39l-4.72,4.72h6.68v44.37a4.73,4.73,0,0,0,9.45,0V251.11H636l-4.72-4.72Z" transform="translate(-193.92 -182.4)"/></svg>